# xmcd
#
# Track frame offsets: 
#        187
#        19170
#        36177
#        49717
#        60717
#        79597
#        94837
#        106517
#        124017
#        137730
#        163192
#        180685
#        207280
#
# Disc length: 2948 seconds
#
# Revision: 3
# Processed by: cddbd v1.5.2PL0 Copyright (c) Steve Scherf et al.
# Submitted via: ExactAudioCopy v0.90b4
#
DISCID=a80b820d
DTITLE=New Grass Revival - On The Boulevard
DYEAR=1988
DGENRE=Bluegrass
TTITLE0=On The Boulevard
TTITLE1=Earth, Water, Wind And Fire
TTITLE2=You're The Best Friend That I've Known
TTITLE3=Just Is
TTITLE4=County Clare
TTITLE5=One More Love Song
TTITLE6=You Don't Knock
TTITLE7=One Of These Trains
TTITLE8=Get In The Wind
TTITLE9=Indian Hills
TTITLE10=One Love/People Get Ready
TTITLE11=Where Do I Go From Here
TTITLE12=Walkin' In Jerusalem
EXTD=
EXTT0=
EXTT1=
EXTT2=
EXTT3=
EXTT4=
EXTT5=
EXTT6=
EXTT7=
EXTT8=
EXTT9=
EXTT10=
EXTT11=
EXTT12=
PLAYORDER=
